<?xml version="1.0" encoding="UTF-8" standalone="no"?>
<!-- Created with Inkscape (http://www.inkscape.org/) -->

<svg
   xmlns:dc="http://purl.org/dc/elements/1.1/"
   xmlns:cc="http://creativecommons.org/ns#"
   xmlns:rdf="http://www.w3.org/1999/02/22-rdf-syntax-ns#"
   xmlns:svg="http://www.w3.org/2000/svg"
   xmlns="http://www.w3.org/2000/svg"
   xmlns:sodipodi="http://sodipodi.sourceforge.net/DTD/sodipodi-0.dtd"
   xmlns:inkscape="http://www.inkscape.org/namespaces/inkscape"
   id="svg4145"
   version="1.1"
   inkscape:version="0.91 r13725"
   width="145.3125"
   height="231.5625"
   viewBox="0 0 145.3125 231.5625"
   sodipodi:docname="TrashCan.svg">
  <metadata
     id="metadata4151">
    <rdf:RDF>
      <cc:Work
         rdf:about="">
        <dc:format>image/svg+xml</dc:format>
        <dc:type
           rdf:resource="http://purl.org/dc/dcmitype/StillImage" />
        <dc:title></dc:title>
      </cc:Work>
    </rdf:RDF>
  </metadata>
  <defs
     id="defs4149" />
  <sodipodi:namedview
     pagecolor="#ffffff"
     bordercolor="#666666"
     borderopacity="1"
     objecttolerance="10"
     gridtolerance="10"
     guidetolerance="10"
     inkscape:pageopacity="0"
     inkscape:pageshadow="2"
     inkscape:window-width="1600"
     inkscape:window-height="837"
     id="namedview4147"
     showgrid="false"
     inkscape:zoom="2.8933873"
     inkscape:cx="72.65625"
     inkscape:cy="115.78125"
     inkscape:window-x="-8"
     inkscape:window-y="-8"
     inkscape:window-maximized="1"
     inkscape:current-layer="svg4145" />
  <path
     style="fill:#000000"
     d="M 48.009955,229.66748 C 24.391749,226.18438 9.3864197,220.20383 2.9492804,211.708 1.6687251,210.01792 1.4267593,148.66922 2.4390298,82.337608 2.8316529,56.609977 2.6779442,49.278839 1.7019241,47.181358 0.90167482,45.461612 0.56324363,41.692628 0.73791241,36.445518 L 1.0070748,28.359785 5.8941624,26.848217 c 2.6878982,-0.831363 7.8402126,-2.129131 11.4495876,-2.88393 5.925554,-1.239163 38.537946,-9.186648 43.125,-10.509357 1.238518,-0.357136 1.556759,-0.226514 0.9375,0.384795 -0.515625,0.509006 -5.367188,2.009736 -10.78125,3.334957 -26.212545,6.416147 -37.512163,9.077092 -38.625473,9.095907 -0.670052,0.01132 -3.0787531,0.864673 -5.3526682,1.896328 -5.64926468,2.563024 -3.0747985,5.433051 2.6670535,2.973243 1.8382857,-0.78752 5.5552697,-2.007258 8.2599657,-2.710528 2.704695,-0.703269 7.134383,-1.854426 9.84375,-2.558126 2.709367,-0.7037 6.711977,-1.909307 8.894688,-2.679128 2.182712,-0.76982 3.739845,-1.029595 3.460297,-0.577275 -0.279548,0.452318 0.25491,0.837155 1.187684,0.855193 0.932774,0.01804 -0.62436,1.116046 -3.460297,2.440019 -2.835938,1.323973 -5.414355,2.82181 -5.729815,3.328527 -0.315462,0.506716 -0.948274,0.923251 -1.40625,0.925632 C 28.750247,30.172865 16.875,35.939485 16.875,36.7147 c 0,0.431915 1.238161,0.7853 2.751469,0.7853 1.513308,0 3.84457,0.415597 5.180583,0.923547 2.160712,0.821501 3.579027,0.148181 12.83616,-6.09375 9.324901,-6.287626 12.044288,-7.7918 12.044288,-6.662059 0,0.195382 -3.691406,2.798826 -8.203125,5.785433 -4.511719,2.986607 -8.414063,5.705178 -8.671875,6.04127 -0.257813,0.336091 -1.3125,0.974218 -2.34375,1.418058 -2.158428,0.92897 6.420895,1.834276 26.71875,2.819412 25.166597,1.221435 35.015583,1.016817 46.40625,-0.964113 1.54688,-0.269015 5.3272,-0.711056 8.40073,-0.982316 7.28035,-0.64254 7.29619,-0.732566 0.71319,-4.055651 -3.08388,-1.55674 -5.86876,-2.568738 -6.18862,-2.248884 -0.31985,0.319854 -0.58155,0.123773 -0.58155,-0.435735 0,-0.559509 -1.55125,-1.976017 -3.44723,-3.147797 -1.89599,-1.171779 -2.956823,-2.293981 -2.35742,-2.493781 0.5994,-0.1998 2.25613,0.450804 3.68161,1.445786 4.61049,3.218106 16.92018,9.58808 18.52853,9.58808 3.464,0 0.36433,-2.487548 -7.10164,-5.699208 -15.12393,-6.505913 -24.44508,-11.126324 -23.976299,-11.884827 0.259528,-0.419927 -2.263025,-1.744343 -5.605675,-2.943149 -3.342651,-1.198806 -5.881284,-2.375908 -5.641408,-2.615784 0.424858,-0.424859 11.568777,3.453511 40.652002,14.14794 15.63031,5.747551 15.86544,5.7964 19.30658,4.011112 4.86184,-2.522354 2.13663,-3.593816 -30.28905,-11.908632 C 101.17969,19.36332 90.421947,16.540287 85.78141,15.271546 72.933422,11.758854 69.976577,11.8617 69.382075,15.841951 c -0.847627,5.674956 -9.483949,8.696177 -11.089534,3.879421 -0.281205,-0.843614 0.07579,-1.078604 1.063043,-0.699757 0.987708,0.379019 1.327096,0.155186 1.011543,-0.667132 -0.261187,-0.680641 0.182174,-1.489665 0.985244,-1.797833 1.114493,-0.42767 1.460129,-2.001947 1.460129,-6.6504916 0,-6.8848614 0.787878,-7.7651727 7.847347,-8.7679963 10.209351,-1.45027599 11.803739,-0.49775732 11.825797,7.0649629 0.0079,2.707031 0.330762,4.934418 0.717481,4.949749 0.386719,0.01533 5.34375,1.27498 11.015625,2.799223 5.671875,1.524242 18.49208,4.915297 28.48935,7.535678 22.30807,5.847159 29.90993,14.527034 21.2651,24.280668 -1.36868,1.544221 -2.28807,47.670191 -2.50463,125.656697 l -0.1002,36.0814 -2.71822,3.43204 c -11.80007,14.8988 -52.328677,22.37892 -90.640195,16.7289 z m 31.900721,-36.77686 0.223174,-36.79687 0.25651,36.85546 0.25651,36.85546 3.03594,-0.29296 3.03594,-0.29296 0.537575,-6.5625 0.537574,-6.5625 0.165551,6.85914 0.16555,6.85915 2.578125,-0.29665 2.578125,-0.29664 0.46875,-32.03259 c 0.257812,-17.61794 0.679687,-32.24348 0.9375,-32.50122 0.257812,-0.25772 0.332625,13.68331 0.166247,30.9801 -0.32745,34.04185 -0.412566,33.49722 5.057006,32.35833 3.662517,-0.76262 3.683707,-0.79271 3.810297,-5.41075 1.23388,-45.0088 1.35129,-163.55012 0.162,-163.55012 -0.76068,0 -1.39147,0.527344 -1.40177,1.171875 -0.0103,0.644531 -0.34081,22.6875 -0.73449,48.984375 -0.39368,26.29687 -0.84692,50.13281 -1.00719,52.96875 -0.16029,2.83594 -0.32195,18.55078 -0.35926,34.92187 -0.0467,20.48569 -0.380768,29.76563 -1.071556,29.76563 -0.675337,0 -0.838322,-2.68378 -0.498178,-8.20313 0.278053,-4.51171 0.759385,-38.57812 1.069622,-75.70312 0.310232,-37.125 0.726592,-70.572959 0.925242,-74.328798 0.41761,-7.895687 -0.0158,-9.577452 -2.468273,-9.577452 -1.6551,0 -1.774866,0.868709 -1.777135,12.890625 -0.0047,24.8817 -1.199137,90.708055 -1.654331,91.171875 -0.253012,0.25781 -0.190781,-22.81253 0.138291,-51.26744 0.621637,-53.75294 0.65025,-53.318763 -3.44596,-52.29068 l -2.238167,0.561744 -0.212641,31.562132 C 89.030301,109.04993 88.75245,123.43505 88.529806,123.65769 88.307163,123.88034 88.125,109.71218 88.125,92.172908 l 0,-31.889594 -18.515625,-0.679168 C 59.425781,59.230604 48.140625,58.594113 44.53125,58.189722 c -3.609375,-0.404391 -6.611828,-0.689855 -6.672116,-0.634365 -1.314516,1.209906 -0.937409,168.362273 0.380701,168.745933 1.961261,0.57084 11.816571,2.31421 15.666415,2.77132 1.546875,0.18368 7.980469,0.39716 14.296875,0.47442 L 79.6875,229.6875 Z M 43.564767,171.5625 c 0,-30.67969 0.118268,-43.23047 0.262817,-27.89063 0.144549,15.33985 0.144549,40.44141 0,55.78125 -0.144549,15.33985 -0.262817,2.78907 -0.262817,-27.89062 z m 44.050423,2.8125 c 0,-20.88281 0.123443,-29.42578 0.274317,-18.98438 0.150873,10.44141 0.150873,27.52735 0,37.96875 -0.150874,10.44141 -0.274317,1.89844 -0.274317,-18.98437 z M 80.410642,103.88946 C 80.150027,63.094788 80.206387,60.9375 81.532771,60.9375 c 0.984294,0 1.730796,7.496839 0.803565,8.0699 -0.382431,0.236356 -0.72094,16.947141 -0.752244,37.13508 -0.0313,20.18794 -0.250897,36.89933 -0.487986,37.13641 -0.23709,0.2371 -0.545548,-17.48815 -0.685464,-39.38943 z m 27.751808,114.31366 c 1.35867,-22.44553 1.55188,-160.07812 0.22471,-160.07812 -1.08922,0 -1.33666,4.488812 -1.45996,26.484375 -0.0817,14.566406 -0.31796,34.289065 -0.52514,43.828125 -1.4159,65.19085 -1.45548,98.4375 -0.11722,98.4375 1.04324,0 1.47276,-1.98374 1.87761,-8.67188 z m -71.994723,-76.88469 0.6796,-84.13093 -2.486163,0 -2.486164,0 -0.0012,10.078125 c -6.93e-4,5.542969 -0.280433,43.262415 -0.621646,83.821015 l -0.620386,73.74288 2.26227,0.35694 c 1.244249,0.19632 2.336944,0.33578 2.428211,0.30993 0.09126,-0.0259 0.471758,-37.90594 0.845538,-84.17796 z m 76.363693,68.44719 c 0.0173,-8.89453 0.26841,-46.96875 0.55808,-84.60937 0.35221,-45.76698 0.21515,-68.126945 -0.41377,-67.5 -0.58965,0.587799 -1.15524,19.121949 -1.51628,49.6875 -0.31672,26.8125 -0.80256,64.46484 -1.07965,83.67187 -0.45047,31.22401 -0.34901,34.92188 0.95819,34.92188 1.26663,0 1.46621,-2.16117 1.49343,-16.17188 z m 4.25878,-66.79687 c 0.38231,-43.828125 0.73357,-80.911943 0.78058,-82.408484 0.0471,-1.496541 -0.3364,-2.866278 -0.85203,-3.043859 -0.59764,-0.205827 -0.967,5.198743 -1.01887,14.908484 -0.0938,17.565134 -1.40724,119.327979 -1.79808,139.316069 -0.21733,11.11511 -0.0492,13.2381 0.96505,12.1875 0.98166,-1.0168 1.36778,-17.27022 1.92335,-80.95971 z m -86.863572,49.45312 c -0.01619,-17.40234 0.268894,-54.9378 0.633515,-83.41213 0.681162,-53.193875 0.52292,-56.109216 -2.857337,-52.641183 -0.658869,0.675978 -1.707783,165.585433 -1.059882,166.633753 2.939163,4.75567 3.313331,1.27111 3.283704,-30.58044 z m 90.567742,-51.5625 c 0.38021,-46.369664 0.31689,-81.796645 -0.14621,-81.796352 -0.4493,2.85e-4 -0.84753,6.222942 -0.88494,13.828125 -0.12801,26.01401 -1.5128,135.692607 -1.79557,142.211817 -0.29407,6.77996 0.19545,9.62554 1.43117,8.31943 0.39867,-0.42137 1.02666,-37.57473 1.39555,-82.56302 z M 25.3125,170.39052 C 26.108943,82.383775 25.944215,55.992455 24.595646,55.542595 c -0.93557,-0.312091 -1.178826,4.614119 -1.153467,23.359078 0.01768,13.065017 -0.155671,27.551457 -0.385213,32.192077 -0.309946,6.26614 -0.827972,102.28639 -0.593025,109.92187 0.01984,0.64454 0.563403,1.17183 1.207934,1.17178 0.917702,-8e-5 1.273544,-11.23453 1.640625,-51.79688 z m 99.07274,6.25011 c 0.0916,-24.70704 0.41018,-53.57032 0.70802,-64.14063 0.29784,-10.57031 0.5562,-19.851563 0.57412,-20.625 0.42728,-18.432743 -0.17384,-36.674889 -1.19727,-36.3335 -1.16768,0.389511 -1.31889,4.188034 -0.64593,16.226917 0.14563,2.605442 0.028,5.136692 -0.26128,5.625 -0.28933,0.488308 -0.54509,9.114395 -0.56834,19.169083 -0.0233,10.05469 -0.34923,42.49027 -0.72439,72.07908 -0.58282,45.96648 -0.49065,53.73399 0.63323,53.35937 1.10128,-0.36709 1.34244,-7.74949 1.48184,-45.36032 z M 21.141845,137.57812 C 21.624391,79.185317 21.533225,54.375 20.836111,54.375 c -0.687652,0 -1.041787,18.82352 -1.150852,61.17188 -0.08665,33.64453 -0.256488,70.66406 -0.37742,82.26562 -0.196269,18.82903 0.0046,24.14148 0.878864,23.24356 0.147162,-0.15114 0.576976,-37.71622 0.955142,-83.47794 z m -3.401728,16.62687 c -0.0034,-35.57056 0.05707,-66.150303 0.134348,-67.95499 0.192115,-4.486439 0.242489,-23.93442 0.07467,-28.828125 -0.274244,-7.997142 -1.546478,-3.716717 -1.671869,5.625 -0.07094,5.285156 -0.257062,14.460937 -0.413601,20.390625 -0.156539,5.929687 -0.237733,31.03125 -0.180431,55.78125 0.0573,24.75 -0.07508,52.17187 -0.29418,60.9375 -0.2191,8.76562 -0.161978,16.94774 0.126937,18.18247 1.777066,7.59466 2.229713,-5.45763 2.224126,-64.13373 z m 110.755813,17.59188 c 0.0571,-47.42348 0.31476,-67.04912 1.32305,-100.781245 0.44664,-14.942128 -0.21031,-20.563478 -1.80777,-15.46875 -0.47143,1.503517 -2.65688,155.921115 -1.48154,164.062495 0.81094,5.61725 1.92024,-9.60625 1.96626,-47.8125 z M 13.435192,135.23437 C 13.752224,83.966625 13.612248,52.5 13.067155,52.5 c -0.487638,0 -0.880228,4.073507 -0.880941,9.140625 -7.08e-4,5.027344 -0.280356,41.669035 -0.62144,81.425985 -0.547303,63.79396 -0.373009,76.74702 1.01283,75.2707 0.190283,-0.20271 0.576198,-37.59903 0.857588,-83.10294 z m 121.034518,-0.9375 c 0.55646,-72.622568 0.47177,-80.85937 -0.83132,-80.85937 -1.23198,0 -1.4645,1.874214 -1.54112,12.421875 -0.0496,6.832031 -0.2142,17.90625 -0.36574,24.609375 -1.63823,72.46432 -1.51434,128.39307 0.28036,126.5625 1.78733,-1.82305 1.85542,-4.11503 2.45782,-82.73438 z M 8.9194634,197.55833 C 9.076429,176.90505 9.4622297,66.973314 9.4112663,57.421875 9.39132,53.683594 8.9963923,50.625 8.5336496,50.625 c -0.4731063,0 -0.8581137,10.155596 -0.8796504,23.203125 -0.021065,12.761719 -0.3326603,48.951725 -0.6924339,80.422225 -0.5962901,52.15935 -0.3788734,62.60446 1.2688253,60.95676 0.3075553,-0.30756 0.6176381,-8.2495 0.6890728,-17.64878 z M 139.70954,187.63052 c 0.0121,-11.67335 0.27866,-47.2501 0.59231,-79.05944 l 0.57029,-57.835172 -1.99857,0.522638 c -1.92034,0.50218 -1.99889,1.041292 -2.0066,13.772671 -0.005,7.287518 -0.24381,43.625033 -0.53198,80.750033 l -0.52396,67.5 1.93824,-2.21323 c 1.83552,-2.09596 1.9394,-3.33794 1.96027,-23.4375 z M 6.09375,91.016791 C 6.09375,58.618106 5.8346044,49.29069 4.9260251,48.986924 4.1953187,48.742626 3.8074968,49.414666 3.8897548,50.782633 3.9620548,51.984997 3.6897852,87.795531 3.2847113,130.3616 2.6627341,195.72033 2.75098,208.11125 3.8522317,210.0491 5.3213933,212.63435 6.09375,171.61957 6.09375,91.016791 Z M 87.512974,56.096439 C 88.882639,50.980984 88.222533,44.0625 86.364792,44.0625 c -2.551048,0 -3.686607,1.82033 -4.105296,6.580893 l -0.36942,4.200357 -0.163788,-4.858699 C 81.526322,44.053143 81.322774,43.961373 68.790397,44.152849 63.697866,44.230656 54.890625,43.820634 49.21875,43.241692 43.546875,42.662748 38.223113,42.188714 37.388169,42.188284 c -1.221192,-6.31e-4 -1.543675,1.131473 -1.648953,5.788795 -0.183939,8.137079 -1.051716,8.130207 -1.051716,-0.0083 0,-6.09375 -0.174419,-6.71875 -1.875,-6.71875 -1.682692,0 -1.875,0.625 -1.875,6.09375 0,3.4375 -0.408653,6.09375 -0.9375,6.09375 -0.527965,0 -0.9375,-2.637807 -0.9375,-6.038422 0,-3.321132 -0.449943,-6.316501 -0.999873,-6.656377 -1.5883,-0.981623 -2.192295,0.285432 -1.965812,4.123858 0.115709,1.961022 -0.197622,4.586251 -0.696292,5.833843 -0.72391,1.811102 -0.918653,0.992745 -0.966099,-4.059777 -0.0467,-4.973589 -0.360432,-6.328125 -1.465674,-6.328125 -2.603183,0 -1.953947,12.028116 0.703125,13.026486 10.861062,4.080938 62.885087,6.327984 63.841099,2.757453 z m 8.112026,-5.58073 0,-6.453209 -3.28125,0 -3.28125,0 0,6.484375 c 0,6.820548 0.492614,7.582375 4.417742,6.832039 1.987249,-0.379886 2.144758,-0.88392 2.144758,-6.863205 z m 5.625,-0.424663 c 0,-6.82305 -0.0813,-7.084913 -2.109375,-6.796875 -3.505922,0.49792 -3.771497,13.893329 -0.275447,13.893329 2.344722,0 2.384822,-0.119312 2.384822,-7.096454 z m 4.6875,-0.403546 c 0,-4.977832 -0.3147,-6.5625 -1.30326,-6.5625 -0.97904,0 -1.3281,1.632574 -1.40314,6.5625 -0.0799,5.24638 0.18151,6.5625 1.30325,6.5625 1.11223,0 1.40315,-1.360614 1.40315,-6.5625 z m 2.35039,5.635738 c -0.32215,-0.521234 0.0329,-0.694346 0.81137,-0.395616 1.13067,0.43388 1.37052,-0.502275 1.30975,-5.112213 -0.0841,-6.37992 -1.08446,-8.971876 -2.58216,-6.690409 -1.26091,1.920787 -1.22594,13.125 0.041,13.125 0.54606,0 0.73508,-0.417043 0.42006,-0.926762 z m 5.79544,-6.573686 c 0.12265,-4.544883 -0.16554,-6.561482 -0.9375,-6.560197 -0.73748,0.0012 -1.1758,2.221561 -1.29553,6.5625 -0.1257,4.557683 0.16052,6.560508 0.9375,6.560197 0.74282,-2.97e-4 1.17793,-2.204297 1.29553,-6.5625 z m 3.95044,-0.983344 c 0.14539,-4.97931 -0.1121,-6.516208 -1.09175,-6.516208 -0.95699,0 -1.31817,1.772187 -1.42459,6.989862 -0.1109,5.437125 0.13162,6.884644 1.09175,6.516208 0.82955,-0.318326 1.29672,-2.610533 1.42459,-6.989862 z m 3.72404,-0.363756 c 0,-3.762788 -0.41474,-6.156961 -1.11328,-6.426693 -0.81401,-0.314319 -1.03027,1.431375 -0.80451,6.494033 0.37435,8.394494 1.91779,8.340298 1.91779,-0.06734 z m 4.00717,-4.043077 C 125.58414,41.167969 125.0568,39.375 124.5931,39.375 c -1.01381,0 -1.14327,12.508472 -0.13997,13.52467 0.94914,0.961356 1.71738,-4.625625 1.31185,-9.540295 z M 19.846022,46.173842 C 19.402089,37.115532 17.8125,36.417801 17.8125,45.28125 c 0,5.148952 0.336007,7.219313 1.171875,7.220717 0.852562,0.0014 1.087343,-1.722864 0.861647,-6.328125 z M 131.0548,44.948046 c 0.044,-5.038935 -0.24543,-6.510546 -1.28026,-6.510546 -1.03837,0 -1.33704,1.564044 -1.33704,7.001827 0,5.532433 0.26867,6.898726 1.28026,6.510545 0.90381,-0.346822 1.29696,-2.405666 1.33704,-7.001826 z M 16.768682,45.542404 C 16.859807,42.230048 16.499293,39.253457 15.967151,38.924575 15.337505,38.535433 15,40.636255 15,44.944672 c 0,8.269461 1.543276,8.791016 1.768682,0.597732 z M 136.09494,43.883055 c -0.45063,-9.23993 -2.96994,-9.137137 -2.96994,0.12118 0,5.615674 0.22413,6.487681 1.64062,6.383055 1.42323,-0.105123 1.59938,-0.966995 1.32932,-6.504235 z M 9.5378569,42.73129 C 9.3153458,37.668079 8.854718,35.625953 7.8480197,35.239646 5.7498713,34.434512 6.2321764,47.519062 8.3462037,48.754978 9.1698542,49.236506 9.84375,49.644294 9.84375,49.661174 c 0,0.01688 -0.1376522,-3.101568 -0.3058931,-6.929884 z m 133.8937131,-2.604396 0.006,-6.279357 -2.8125,0.980443 c -2.78123,0.969542 -2.8125,1.057103 -2.8125,7.876378 l 0,6.895935 2.80657,-1.597021 c 2.67764,-1.523652 2.80685,-1.885505 2.8125,-7.876378 z M 12.796792,42.187179 c 0.0773,-3.093573 -0.23911,-5.624679 -0.703125,-5.624679 -0.966708,0 -1.16588,9.677787 -0.218667,10.625 0.34375,0.34375 0.660156,0.624856 0.703125,0.624679 0.04297,-1.75e-4 0.141369,-2.531425 0.218667,-5.625 z M 5.2446413,40.412925 C 4.7172509,29.84052 1.875,28.577033 1.875,38.914994 c 0,5.496894 0.9131998,7.574275 3.4866217,7.931498 0.1129545,0.01568 0.060313,-2.879426 -0.1169804,-6.433567 z M 134.0625,36.10885 c 0,-0.127939 -2.63672,-1.158442 -5.85938,-2.290005 -3.22265,-1.131563 -6.70312,-2.450038 -7.73437,-2.929944 -3.75702,-1.74838 -20.27996,-7.449316 -21.374634,-7.374925 -1.248872,0.08487 -0.512963,0.437764 16.218384,7.777336 9.77789,4.289287 18.75,6.594539 18.75,4.817538 z M 27.114518,29.821926 C 42.475642,22.525293 42.15782,22.328675 24.372737,28.125738 16.46443,30.703457 9.3273797,32.827449 8.512624,32.84572 c -1.9848877,0.04451 2.654835,2.701317 4.795594,2.74606 0.874207,0.01827 7.087042,-2.578164 13.8063,-5.769854 z M 65.747293,16.875 c 0.509225,0 0.609046,0.527344 0.221825,1.171875 -0.478385,0.796271 -0.195636,0.759479 0.882171,-0.114792 1.18566,-0.961757 1.586211,-2.776747 1.586211,-7.1875 0,-3.7582396 0.408742,-6.0370802 1.125699,-6.276066 0.706968,-0.235656 0.774679,-0.5921758 0.182031,-0.9584525 -2.833293,-1.7510709 -5.52648,1.6707487 -5.52648,7.0216495 0,2.977543 -0.512437,5.808293 -1.171875,6.473558 -0.644531,0.650226 -1.171875,1.549862 -1.171875,1.999193 0,0.449329 0.662947,0.154017 1.473215,-0.65625 C 64.158482,17.537947 65.238067,16.875 65.747293,16.875 Z M 80.802931,8.90625 C 80.366427,5.1672804 80.317876,5.1285524 78.43167,7.0147585 76.701919,8.7445102 77.48528,12.1875 79.608592,12.1875 c 1.250715,0 1.498071,-0.679567 1.194339,-3.28125 z M 75.72149,9.421875 C 75.998311,5.2529932 75.021308,3.6732107 72.86758,4.8071958 70.407005,6.1027435 69.409066,7.4267424 69.389356,9.421875 c -0.02021,2.046292 6.196257,2.046292 6.332134,0 z m -52.276257,27.375 c 0.0042,-0.386719 1.797222,-1.701161 3.984375,-2.920984 7.551935,-4.211877 16.173518,-8.874929 18.976642,-10.263668 1.546875,-0.766361 3.382403,-1.838976 4.078952,-2.383587 1.213397,-0.948721 3.889798,-1.693223 3.889798,-1.082035 0,0.436056 -6.116473,4.000193 -14.0625,8.194376 -3.867188,2.041232 -7.172752,4.095942 -7.345697,4.566019 -0.172946,0.470078 -0.650277,0.647132 -1.060736,0.393455 -0.410459,-0.253678 -2.291599,0.587443 -4.180312,1.869158 -3.676061,2.494643 -4.29264,2.729039 -4.280522,1.627266 z"
     id="path4155"
     inkscape:connector-curvature="0"
     sodipodi:nodetypes="ssssscsssssssssssssssssssssssssssscsssssssssssssssssssssssssscssccccccccccccscssssssssssssssssscscscssssssccsssssssssssscsssssssccccsscscccsssssssscssscsssssssssssssssscsssscsscssssssssssssssssssssssssssssssssssssssssssssscscscsssssssscsscssssssssssssssssccscccsssssssssssscssssccscsssssssssssssssssscscssscsssssssssssssccsscsccssscssssssssssssssssssssssssssssssssssscssssssssc" />
</svg>
